<svg width="169" height="27" viewBox="0 0 169 27" fill="none" xmlns="http://www.w3.org/2000/svg">
<path d="M0.814969 26V0.619998H11.903C14.567 0.619998 16.631 1.208 18.095 2.384C19.559 3.536 20.291 5.144 20.291 7.208C20.291 8.576 19.943 9.752 19.247 10.736C18.551 11.72 17.591 12.44 16.367 12.896C17.807 13.304 18.923 14.024 19.715 15.056C20.531 16.064 20.939 17.348 20.939 18.908C20.939 21.164 20.171 22.916 18.635 24.164C17.123 25.388 15.011 26 12.299 26H0.814969ZM5.24297 11.384H11.111C14.255 11.384 15.827 10.172 15.827 7.748C15.827 5.324 14.255 4.112 11.111 4.112H5.24297V11.384ZM5.24297 22.508H11.723C14.891 22.508 16.475 21.236 16.475 18.692C16.475 16.148 14.891 14.876 11.723 14.876H5.24297V22.508ZM33.1961 26.36C31.3721 26.36 29.7881 25.988 28.4441 25.244C27.1001 24.5 26.0561 23.444 25.3121 22.076C24.5681 20.684 24.1961 19.052 24.1961 17.18C24.1961 15.308 24.5681 13.688 25.3121 12.32C26.0561 10.952 27.1001 9.896 28.4441 9.152C29.7881 8.408 31.3721 8.036 33.1961 8.036C35.0201 8.036 36.6041 8.408 37.9481 9.152C39.2921 9.896 40.3361 10.952 41.0801 12.32C41.8241 13.688 42.1961 15.308 42.1961 17.18C42.1961 19.052 41.8241 20.684 41.0801 22.076C40.3361 23.444 39.2921 24.5 37.9481 25.244C36.6041 25.988 35.0201 26.36 33.1961 26.36ZM33.1961 22.94C34.5401 22.94 35.6201 22.46 36.4361 21.5C37.2521 20.516 37.6601 19.076 37.6601 17.18C37.6601 15.26 37.2521 13.832 36.4361 12.896C35.6201 11.936 34.5401 11.456 33.1961 11.456C31.8521 11.456 30.7721 11.936 29.9561 12.896C29.1401 13.832 28.7321 15.26 28.7321 17.18C28.7321 19.076 29.1401 20.516 29.9561 21.5C30.7721 22.46 31.8521 22.94 33.1961 22.94ZM53.9383 26.36C52.1143 26.36 50.5303 25.988 49.1863 25.244C47.8423 24.5 46.7983 23.444 46.0543 22.076C45.3103 20.684 44.9383 19.052 44.9383 17.18C44.9383 15.308 45.3103 13.688 46.0543 12.32C46.7983 10.952 47.8423 9.896 49.1863 9.152C50.5303 8.408 52.1143 8.036 53.9383 8.036C55.7623 8.036 57.3463 8.408 58.6903 9.152C60.0343 9.896 61.0783 10.952 61.8223 12.32C62.5663 13.688 62.9383 15.308 62.9383 17.18C62.9383 19.052 62.5663 20.684 61.8223 22.076C61.0783 23.444 60.0343 24.5 58.6903 25.244C57.3463 25.988 55.7623 26.36 53.9383 26.36ZM53.9383 22.94C55.2823 22.94 56.3623 22.46 57.1783 21.5C57.9943 20.516 58.4023 19.076 58.4023 17.18C58.4023 15.26 57.9943 13.832 57.1783 12.896C56.3623 11.936 55.2823 11.456 53.9383 11.456C52.5943 11.456 51.5143 11.936 50.6983 12.896C49.8823 13.832 49.4743 15.26 49.4743 17.18C49.4743 19.076 49.8823 20.516 50.6983 21.5C51.5143 22.46 52.5943 22.94 53.9383 22.94ZM66.6525 26V0.619998H71.1525V15.884H71.2245L78.3165 8.396H83.7525L75.7605 16.82L84.2565 26H78.7485L71.2245 18.152H71.1525V26H66.6525ZM93.3693 26L84.4053 0.619998H89.1573L95.4573 19.34L102.081 0.619998H105.501L111.981 19.592L118.461 0.619998H122.961L113.925 26H110.109L103.665 7.676L97.1853 26H93.3693ZM125.743 4.616V0.223999H130.783V4.616H125.743ZM126.031 26V8.396H130.531V26H126.031ZM141.651 26.36C140.163 26.36 138.771 26.18 137.475 25.82C136.179 25.46 135.099 24.944 134.235 24.272L135.387 21.32C136.275 21.92 137.271 22.388 138.375 22.724C139.479 23.036 140.583 23.192 141.687 23.192C142.839 23.192 143.691 23 144.243 22.616C144.819 22.208 145.107 21.68 145.107 21.032C145.107 20.024 144.363 19.376 142.875 19.088L139.275 18.404C136.227 17.828 134.703 16.244 134.703 13.652C134.703 12.5 135.015 11.504 135.639 10.664C136.287 9.824 137.175 9.176 138.303 8.72C139.431 8.264 140.727 8.036 142.191 8.036C143.439 8.036 144.639 8.216 145.791 8.576C146.943 8.912 147.927 9.428 148.743 10.124L147.519 13.076C146.823 12.5 145.983 12.044 144.999 11.708C144.039 11.372 143.115 11.204 142.227 11.204C141.051 11.204 140.175 11.408 139.599 11.816C139.047 12.224 138.771 12.764 138.771 13.436C138.771 14.492 139.455 15.14 140.823 15.38L144.423 16.064C145.983 16.352 147.159 16.88 147.951 17.648C148.767 18.416 149.175 19.448 149.175 20.744C149.175 22.496 148.491 23.876 147.123 24.884C145.755 25.868 143.931 26.36 141.651 26.36ZM161.461 26.36C159.469 26.36 157.753 25.988 156.313 25.244C154.873 24.5 153.757 23.444 152.965 22.076C152.197 20.708 151.813 19.088 151.813 17.216C151.813 15.392 152.185 13.796 152.929 12.428C153.697 11.06 154.741 9.992 156.061 9.224C157.405 8.432 158.929 8.036 160.633 8.036C163.129 8.036 165.097 8.828 166.537 10.412C168.001 11.996 168.733 14.156 168.733 16.892V18.224H156.133C156.469 21.368 158.269 22.94 161.533 22.94C162.517 22.94 163.501 22.796 164.485 22.508C165.469 22.196 166.369 21.716 167.185 21.068L168.445 24.092C167.605 24.788 166.549 25.34 165.277 25.748C164.005 26.156 162.733 26.36 161.461 26.36ZM160.813 11.096C159.493 11.096 158.425 11.504 157.609 12.32C156.793 13.136 156.301 14.24 156.133 15.632H164.989C164.893 14.168 164.485 13.052 163.765 12.284C163.069 11.492 162.085 11.096 160.813 11.096Z" fill="url(#paint0_linear_517_9)"/>
<defs>
<linearGradient id="paint0_linear_517_9" x1="-2" y1="14.5686" x2="170" y2="14.5686" gradientUnits="userSpaceOnUse">
<stop stop-color="#7FD1CC"/>
<stop offset="1" stop-color="#9694F5"/>
</linearGradient>
</defs>
</svg>
